<svg version="1.0" xmlns="http://www.w3.org/2000/svg" width="100" height="100" viewBox="0 0 254.000000 233.000000" preserveAspectRatio="xMidYMid meet">
<g transform="translate(0.000000,233.000000) scale(0.100000,-0.100000)" fill="#a9cfae" stroke="none">
<path d="M1778 2177 c-70 -72 -197 -204 -282 -291 -86 -88 -156 -163 -156 -168 0 -4 101 -8 225 -8 l225 0 0 -27 c0 -34 -20 -109 -47 -179 -30 -76 -84 -152 -174 -243 -88 -88 -177 -139 -315 -179 -203 -60 -654 -92 -803 -57 -190 45 -352 212 -391 403 -14 66 -28 75 -44 26 -15 -46 -13 -389 3 -459 29 -129 82 -280 126 -363 73 -134 66 -131 144 -66 89 74 214 136 346 173 135 38 169 44 370 71 198 26 291 49 409 102 231 104 408 319 472 573 13 52 19 63 26 50 17 -28 25 -166 17 -265 -21 -248 -118 -465 -281 -631 -156 -158 -370 -269 -643 -334 -156 -37 -361 -115 -379 -144 -6 -9 65 -42 170 -80 62 -23 62 -23 100 -3 22 11 117 43 212 71 312 94 490 190 662 354 173 166 282 374 331 628 18 95 21 137 16 259 -3 85 -12 179 -23 228 -15 69 -16 84 -5 91 8 5 101 7 207 4 107 -3 194 -2 194 3 0 8 -40 50 -355 376 -115 120 -214 218 -220 218 -5 0 -67 -60 -137 -133z"/>
<path d="M129 1844 c-21 -26 -24 -226 -4 -303 22 -85 64 -166 122 -238 58 -71 73 -84 143 -122 103 -56 243 -62 269 -13 14 28 2 41 -72 79 -84 42 -177 113 -242 186 -79 87 -155 263 -155 357 0 60 -32 89 -61 54z"/>
<path d="M2223 1108 c-13 -14 -32 -64 -47 -123 -46 -184 -80 -253 -202 -415 -92 -122 -188 -211 -324 -303 -130 -87 -236 -137 -365 -175 -82 -23 -100 -32 -100 -48 0 -65 397 15 560 113 156 94 309 235 396 368 142 214 240 523 185 584 -26 28 -76 28 -103 -1z"/>
<path d="M1620 884 c-161 -124 -304 -176 -610 -224 -272 -43 -544 -143 -665 -245 l-30 -25 50 -46 c27 -26 68 -62 91 -80 l41 -34 64 35 c82 43 194 84 339 125 276 76 410 128 525 205 96 64 216 179 269 259 74 111 46 122 -74 30z"/>
</g>
</svg>
